<svg xmlns="http://www.w3.org/2000/svg" viewBox="0 0 160 160">
  <defs>
    <radialGradient id="bg_DACP" cx="50%" cy="40%" r="60%">
      <stop offset="0%" stop-color="#2C3E5022"/>
      <stop offset="100%" stop-color="#0a0a0a"/>
    </radialGradient>
  </defs>
  <rect width="160" height="160" rx="20" fill="url(#bg_DACP)"/>
  <g><ellipse cx="80" cy="60" rx="22" ry="24" fill="#2C3E50"/>
      <ellipse cx="80" cy="55" rx="16" ry="12" fill="#fff"/>
      <circle cx="73" cy="52" r="3.5" fill="#5DADE2"/><circle cx="87" cy="52" r="3.5" fill="#5DADE2"/>
      <circle cx="73" cy="52" r="1.8" fill="#0a0a0a"/><circle cx="87" cy="52" r="1.8" fill="#0a0a0a"/>
      <polygon points="80,56 76,66 84,66" fill="#F39C12"/>
      <path d="M80 66 L78 70 L82 70 Z" fill="#E67E22"/>
      <path d="M58 40 Q50 30 45 38 Q55 36 62 44" fill="#2C3E50"/><path d="M102 40 Q110 30 115 38 Q105 36 98 44" fill="#2C3E50"/></g>
  <text x="80" y="108" text-anchor="middle" font-family="'DM Mono', monospace" font-size="14" font-weight="500" fill="#e8c547" letter-spacing="2">DACP</text>
  <text x="80" y="126" text-anchor="middle" font-family="'Noto Sans JP', sans-serif" font-size="9" fill="#e0e0e0">ビジョナリー設計者</text>
  <text x="80" y="142" text-anchor="middle" font-family="'Noto Sans JP', sans-serif" font-size="8" fill="#7a7a7a">鷲 — 俯瞰する目</text>
</svg>