<svg xmlns="http://www.w3.org/2000/svg" viewBox="0 0 160 160">
  <defs>
    <radialGradient id="bg_DBCX" cx="50%" cy="40%" r="60%">
      <stop offset="0%" stop-color="#E74C3C22"/>
      <stop offset="100%" stop-color="#0a0a0a"/>
    </radialGradient>
  </defs>
  <rect width="160" height="160" rx="20" fill="url(#bg_DBCX)"/>
  <g><ellipse cx="80" cy="52" rx="22" ry="20" fill="#E74C3C"/>
      <circle cx="72" cy="48" r="5" fill="#fff"/><circle cx="88" cy="48" r="5" fill="#fff"/>
      <circle cx="73" cy="48" r="2.5" fill="#0a0a0a"/><circle cx="89" cy="48" r="2.5" fill="#0a0a0a"/>
      <path d="M74 58 Q80 64 86 58" stroke="#F1948A" stroke-width="2" fill="none"/>
      <path d="M62 70 Q56 85 65 98" stroke="#E74C3C" stroke-width="3" fill="none" stroke-linecap="round"/><path d="M68 70 Q64 85 70 98" stroke="#E74C3C" stroke-width="3" fill="none" stroke-linecap="round"/><path d="M74 70 Q72 85 75 98" stroke="#E74C3C" stroke-width="3" fill="none" stroke-linecap="round"/><path d="M80 70 Q80 85 80 98" stroke="#E74C3C" stroke-width="3" fill="none" stroke-linecap="round"/><path d="M86 70 Q88 85 85 98" stroke="#E74C3C" stroke-width="3" fill="none" stroke-linecap="round"/><path d="M92 70 Q96 85 90 98" stroke="#E74C3C" stroke-width="3" fill="none" stroke-linecap="round"/><path d="M98 70 Q104 85 95 98" stroke="#E74C3C" stroke-width="3" fill="none" stroke-linecap="round"/></g>
  <text x="80" y="108" text-anchor="middle" font-family="'DM Mono', monospace" font-size="14" font-weight="500" fill="#e8c547" letter-spacing="2">DBCX</text>
  <text x="80" y="126" text-anchor="middle" font-family="'Noto Sans JP', sans-serif" font-size="9" fill="#e0e0e0">探究するイノベーター</text>
  <text x="80" y="142" text-anchor="middle" font-family="'Noto Sans JP', sans-serif" font-size="8" fill="#7a7a7a">タコ — 多腕で探る</text>
</svg>