<svg xmlns="http://www.w3.org/2000/svg" viewBox="0 0 160 160">
  <defs>
    <radialGradient id="bg_TACX" cx="50%" cy="40%" r="60%">
      <stop offset="0%" stop-color="#E74C3C22"/>
      <stop offset="100%" stop-color="#0a0a0a"/>
    </radialGradient>
  </defs>
  <rect width="160" height="160" rx="20" fill="url(#bg_TACX)"/>
  <g><ellipse cx="80" cy="62" rx="20" ry="22" fill="#E74C3C"/>
      <ellipse cx="80" cy="58" rx="14" ry="12" fill="#F39C12"/>
      <circle cx="74" cy="54" r="3.5" fill="#fff"/><circle cx="86" cy="54" r="3.5" fill="#fff"/>
      <circle cx="74" cy="54" r="1.8" fill="#0a0a0a"/><circle cx="86" cy="54" r="1.8" fill="#0a0a0a"/>
      <polygon points="80,60 77,66 83,66" fill="#F39C12"/>
      <path d="M70 38 Q64 20 72 30 Q68 16 80 28 Q92 16 88 30 Q96 20 90 38" fill="#F39C12"/>
      <path d="M74 38 Q70 26 78 32 Q80 22 82 32 Q90 26 86 38" fill="#E74C3C"/>
      <path d="M62 72 Q52 90 48 86" stroke="#F39C12" stroke-width="3" fill="none" stroke-linecap="round"/>
      <path d="M98 72 Q108 90 112 86" stroke="#F39C12" stroke-width="3" fill="none" stroke-linecap="round"/></g>
  <text x="80" y="108" text-anchor="middle" font-family="'DM Mono', monospace" font-size="14" font-weight="500" fill="#e8c547" letter-spacing="2">TACX</text>
  <text x="80" y="126" text-anchor="middle" font-family="'Noto Sans JP', sans-serif" font-size="9" fill="#e0e0e0">変革を楽しむ開拓者</text>
  <text x="80" y="142" text-anchor="middle" font-family="'Noto Sans JP', sans-serif" font-size="8" fill="#7a7a7a">不死鳥 — 変革の炎</text>
</svg>