<svg xmlns="http://www.w3.org/2000/svg" viewBox="0 0 160 160">
  <defs>
    <radialGradient id="bg_TASX" cx="50%" cy="40%" r="60%">
      <stop offset="0%" stop-color="#E67E2222"/>
      <stop offset="100%" stop-color="#0a0a0a"/>
    </radialGradient>
  </defs>
  <rect width="160" height="160" rx="20" fill="url(#bg_TASX)"/>
  <g><ellipse cx="80" cy="64" rx="22" ry="22" fill="#E67E22"/>
      <polygon points="60,42 54,16 76,38" fill="#E67E22"/><polygon points="100,42 106,16 84,38" fill="#E67E22"/>
      <polygon points="62,40 56,20 74,36" fill="#F0B27A"/><polygon points="98,40 104,20 86,36" fill="#F0B27A"/>
      <ellipse cx="80" cy="62" rx="14" ry="10" fill="#fff"/>
      <circle cx="73" cy="56" r="3.5" fill="#0a0a0a"/><circle cx="87" cy="56" r="3.5" fill="#0a0a0a"/>
      <circle cx="74" cy="55" r="1.2" fill="#fff"/><circle cx="88" cy="55" r="1.2" fill="#fff"/>
      <ellipse cx="80" cy="64" rx="3.5" ry="2.5" fill="#0a0a0a"/></g>
  <text x="80" y="108" text-anchor="middle" font-family="'DM Mono', monospace" font-size="14" font-weight="500" fill="#e8c547" letter-spacing="2">TASX</text>
  <text x="80" y="126" text-anchor="middle" font-family="'Noto Sans JP', sans-serif" font-size="9" fill="#e0e0e0">越境するファシリテーター</text>
  <text x="80" y="142" text-anchor="middle" font-family="'Noto Sans JP', sans-serif" font-size="8" fill="#7a7a7a">狐 — 賢く橋を架ける</text>
</svg>